<svg xmlns="http://www.w3.org/2000/svg" xmlns:xlink="http://www.w3.org/1999/xlink" version="1.1" x="0px" y="0px" width="256" height="256" viewBox="0 0 512 512" enable-background="new 0 0 128 128" xml:space="preserve"><defs><style type="text/css">.fil0 {fill:white} .fil1 {fill:#888888}</style></defs><g><path class="fil0" d="M405.6,237.2h37.9c-8.9-88.9-79.7-159.8-168.7-168.7v37.9C342.9,115,397.1,169.1,405.6,237.2z"/><path class="fil0" d="M106.4,274.8H68.5C77.2,364,148,434.6,237.2,443.5v-37.9C169.1,397,114.9,342.9,106.4,274.8z"/><path  class="fil1" d="M68.5,237.2h37.9c8.5-68,62.8-122.1,130.8-130.8V68.5C148.2,77.4,77.4,148.2,68.5,237.2z"/><path  class="fil1" d="M274.8,405.6v37.9c89.1-8.9,160-79.5,168.7-168.7h-37.9C397.1,342.9,342.9,397,274.8,405.6z"/></g></svg>
