<?xml version="1.0" encoding="UTF-8" standalone="no"?>
<!-- Created with sK1/UniConvertor (http://sk1project.org/) -->

<svg
   width="512"
   height="512"
   xmlns:dc="http://purl.org/dc/elements/1.1/"
   xmlns:cc="http://creativecommons.org/ns#"
   xmlns:rdf="http://www.w3.org/1999/02/22-rdf-syntax-ns#"
   xmlns:svg="http://www.w3.org/2000/svg"
   xmlns="http://www.w3.org/2000/svg"
   xmlns:xlink="http://www.w3.org/1999/xlink"
   xmlns:sodipodi="http://sodipodi.sourceforge.net/DTD/sodipodi-0.dtd"
   xmlns:inkscape="http://www.inkscape.org/namespaces/inkscape"

   viewBox="0 0 595.276 841.89"
   fill-rule="evenodd"
   id="svg2985"
   version="1.1"
   inkscape:version="0.92.4 5da689c313, 2019-01-14"
   sodipodi:docname="pointer.svg">
  <metadata
     id="metadata2999">
    <rdf:RDF>
      <cc:Work
         rdf:about="">
        <dc:format>image/svg+xml</dc:format>
        <dc:type
           rdf:resource="http://purl.org/dc/dcmitype/StillImage" />
        <dc:title />
      </cc:Work>
    </rdf:RDF>
  </metadata>
  <defs
     id="defs2997">
    <linearGradient
       inkscape:collect="always"
       id="linearGradient3774">
      <stop
         style="stop-color:#ffffff;stop-opacity:1;"
         offset="0"
         id="stop3776" />
      <stop
         style="stop-color:#ffffff;stop-opacity:0;"
         offset="1"
         id="stop3778" />
    </linearGradient>
    <linearGradient
       inkscape:collect="always"
       xlink:href="#linearGradient3774"
       id="linearGradient3780"
       x1="317.48871"
       y1="531.04877"
       x2="316.34882"
       y2="716.71271"
       gradientUnits="userSpaceOnUse" />
    <linearGradient
       inkscape:collect="always"
       xlink:href="#linearGradient3774"
       id="linearGradient3786"
       gradientUnits="userSpaceOnUse"
       x1="317.48871"
       y1="531.04877"
       x2="316.34882"
       y2="716.71271"
       gradientTransform="matrix(0.81801488,0.23023693,-0.14384566,1.1819851,101.40791,-119.83827)" />
  </defs>
  <sodipodi:namedview
     pagecolor="#ffffff"
     bordercolor="#666666"
     borderopacity="1"
     objecttolerance="10"
     gridtolerance="10"
     guidetolerance="10"
     inkscape:pageopacity="0"
     inkscape:pageshadow="2"
     inkscape:window-width="1874"
     inkscape:window-height="1174"
     id="namedview2995"
     showgrid="false"
     inkscape:zoom="0.9996555"
     inkscape:cx="133.34647"
     inkscape:cy="112.07066"
     inkscape:window-x="2606"
     inkscape:window-y="0"
     inkscape:window-maximized="1"
     inkscape:current-layer="g3782" />
  <g
     id="g3782"
     transform="matrix(1.2303352,-1.2303352,0.9724882,0.9724882,-465.60501,304.84309)">
    <path
       inkscape:connector-curvature="0"
       id="path2991"
       d="m 187.5881,716.26214 158.28506,44.55061 5.15715,-42.37653 0.41086,-3.18137 0.45801,-3.16566 0.50449,-3.15133 0.5504,-3.13231 0.5981,-3.114 0.64222,-3.09424 0.68852,-3.07144 0.73317,-3.04908 0.77836,-3.02414 0.8234,-2.99802 0.86666,-2.97117 0.90979,-2.94314 0.95345,-2.91252 0.99709,-2.88189 1.03964,-2.84914 1.08122,-2.81543 1.12252,-2.77937 1.16396,-2.74446 1.20333,-2.70649 1.24419,-2.66686 1.28342,-2.62773 1.32318,-2.58596 1.35952,-2.54395 1.39736,-2.50028 1.43423,-2.4557 1.47096,-2.40988 1.50755,-2.36292 1.54152,-2.31547 1.57457,-2.26704 1.70928,-2.45651 1.67315,-2.50703 1.63616,-2.55778 1.59987,-2.6071 1.56096,-2.65595 1.52344,-2.70197 1.48327,-2.7475 1.44396,-2.79279 1.40366,-2.83715 1.36213,-2.87817 1.3214,-2.91897 1.27742,-2.9607 1.23707,-2.99772 1.19169,-3.03494 1.14958,-3.07125 1.10391,-3.1061 1.06068,-3.14028 1.01377,-3.17181 0.97011,-3.20244 0.92208,-3.23186 0.87815,-3.2601 0.82968,-3.28598 0.78301,-3.31256 0.73589,-3.3356 0.68781,-3.35769 0.63892,-3.38001 0.59138,-3.3995 0.54273,-3.41686 0.4949,-3.43399 0.44515,-3.44922 23.99907,-197.20121 0.18154,-1.69337 0.13449,-1.70295 0.0865,-1.71157 0.0397,-1.7162 -0.008,-1.71749 -0.0558,-1.71739 -0.10513,-1.71537 -0.15092,-1.70749 -0.19753,-1.69982 -0.24652,-1.68671 -0.29207,-1.67387 -0.33752,-1.65487 -0.38381,-1.63612 -0.4271,-1.61407 -0.47342,-1.58799 -0.51565,-1.56075 -0.55749,-1.52975 -0.60031,-1.49779 -0.64094,-1.46277 -0.67942,-1.4247 -0.71967,-1.38591 -0.75627,-1.34242 -0.79287,-1.29894 -0.82633,-1.25334 -0.86119,-1.20325 -0.89168,-1.15438 -0.92355,-1.101 -0.95283,-1.04812 -0.98091,-0.99123 -1.00638,-0.93483 -1.03051,-0.87561 -1.053,-0.81592 -1.07497,-0.75365 -1.09269,-0.69141 -1.11152,-0.62702 -1.12791,-0.56195 -1.14004,-0.49691 -1.15331,-0.42974 -1.16313,-0.36283 -1.17066,-0.29404 -1.17804,-0.22643 -1.18148,-0.1565 -1.18381,-0.0887 -1.18628,-0.0197 -1.18384,0.0507 -1.18112,0.11865 -1.17527,0.18877 -1.1675,0.25696 -1.16054,0.32493 -1.1492,0.39169 -1.13556,0.46033 -1.12067,0.52564 -1.10592,0.59214 -1.0865,0.65505 -1.06737,0.72035 -1.04521,0.78159 -1.02292,0.84166 -0.99652,0.90287 -0.97133,0.96008 -0.94274,1.01704 -0.9122,1.07207 -0.8814,1.12476 -0.84961,1.1765 -0.81332,1.22582 -0.78111,1.27401 -0.7426,1.31908 -0.70462,1.36155 -0.66665,1.40403 -0.62549,1.44128 -0.5853,1.47949 -0.54439,1.51178 -0.49939,1.54523 -0.45791,1.5728 -0.41205,1.59915 -0.36604,1.62433 -0.32205,1.64526 -0.27601,1.66312 -0.22899,1.68002 4.35853,-35.81415 0.18294,-1.69787 0.13453,-1.71027 0.0872,-1.71748 0.0396,-1.72233 -0.008,-1.72482 -0.0567,-1.72376 -0.10455,-1.7201 -0.15169,-1.71503 -0.19942,-1.70524 -0.24483,-1.69358 -0.29395,-1.67928 -0.33926,-1.66147 -0.38405,-1.64109 -0.4298,-1.61972 -0.47433,-1.59434 -0.51835,-1.56641 -0.56019,-1.5354 -0.60219,-1.5032 -0.642,-1.46796 -0.68375,-1.43081 -0.7217,-1.39015 -0.75815,-1.34784 -0.79488,-1.30318 -0.83096,-1.25708 -0.86307,-1.20867 -0.89629,-1.15813 -0.92721,-1.1057 -0.95664,-1.05162 -0.98374,-0.9957 -1.00951,-0.93693 -1.03432,-0.87913 -1.05776,-0.81849 -1.07795,-0.75693 -1.09746,-0.69397 -1.11547,-0.62935 -1.13103,-0.56406 -1.14414,-0.49806 -1.15806,-0.4323 -1.16737,-0.3628 -1.17461,-0.29637 -1.18228,-0.22641 -1.18638,-0.15788 -1.18886,-0.0889 -1.18969,-0.0195 -1.18808,0.0507 -1.1855,0.11986 -1.17951,0.1888 -1.17269,0.25794 -1.16314,0.32543 -1.15372,0.39408 -1.13994,0.46153 -1.12601,0.5278 -1.10865,0.59383 -1.09035,0.65886 -1.07175,0.72155 -1.04974,0.78399 -1.02594,0.8457 -1.00023,0.90549 -0.97436,0.96413 -0.94576,1.02107 -0.91606,1.07588 -0.88442,1.1288 -0.85183,1.18076 -0.81812,1.23057 -0.78251,1.27851 -0.74481,1.32336 -0.7078,1.36677 -0.66967,1.40806 -0.62881,1.44768 -0.58587,1.48422 -0.54689,1.5184 -0.50161,1.5495 -0.45863,1.57871 -0.4129,1.60624 -0.3684,1.62978 -0.32277,1.65117 -0.27687,1.67021 -0.23038,1.68452 1.95069,-16.0289 0.1839,-1.69882 0.13439,-1.70909 0.0872,-1.71748 0.0397,-1.72351 -0.009,-1.72364 -0.0575,-1.72399 -0.10441,-1.72129 -0.15101,-1.71362 -0.19942,-1.70523 -0.24647,-1.69405 -0.29231,-1.67882 -0.33926,-1.66147 -0.38554,-1.64272 -0.4298,-1.61972 -0.47448,-1.59318 -0.51753,-1.56617 -0.56005,-1.53657 -0.60136,-1.50299 -0.64364,-1.46842 -0.68308,-1.4294 -0.72088,-1.38991 -0.75896,-1.34807 -0.79557,-1.30457 -0.82931,-1.25663 -0.86471,-1.20913 -0.89644,-1.15694 -0.92639,-1.10547 -0.95582,-1.0514 -0.98293,-0.99547 -1.011,-0.93858 -1.03431,-0.87912 -1.05777,-0.81849 -1.07727,-0.75552 -1.09828,-0.6942 -1.11465,-0.62913 -1.13171,-0.56546 -1.14495,-0.4983 -1.15739,-0.43089 -1.16641,-0.36374 -1.17557,-0.29542 -1.18131,-0.22736 -1.18639,-0.15788 -1.18982,-0.088 -1.18888,-0.0192 -1.18889,0.0504 -1.18372,0.11915 -1.18032,0.18856 -1.1727,0.25795 -1.1641,0.32637 -1.1529,0.39432 -1.13994,0.46154 -1.12519,0.52803 -1.10933,0.5924 -1.09117,0.65864 -1.07093,0.72178 -1.04906,0.78539 -1.02594,0.84569 -1.00105,0.90527 -0.97422,0.96294 -0.94576,1.02107 -0.91606,1.0759 -0.88456,1.12997 -0.85183,1.18076 -0.81798,1.2294 -0.7825,1.27851 -0.74578,1.32429 -0.70779,1.36678 -0.66886,1.40829 -0.62799,1.44792 -0.58751,1.48374 -0.54511,1.5177 -0.50256,1.55045 -0.45863,1.57871 -0.41358,1.60484 -0.36854,1.63095 -0.32278,1.65117 -0.27672,1.66903 -0.2289,1.68616 15.85093,-130.24765 0.1814,-1.69219 0.13463,-1.70413 0.0865,-1.71157 0.0396,-1.71619 -0.008,-1.7175 -0.0566,-1.71762 -0.10348,-1.71491 -0.15174,-1.70771 -0.1985,-1.69888 -0.24555,-1.68766 -0.29125,-1.673634 -0.33835,-1.655104 -0.38381,-1.636115 -0.42805,-1.613118 -0.47246,-1.588941 -0.51565,-1.560756 -0.55832,-1.529978 -0.59948,-1.497557 -0.64095,-1.462772 -0.68023,-1.424932 -0.71886,-1.38568 -0.75627,-1.342422 -0.79204,-1.298703 -0.82715,-1.253571 -0.8612,-1.203253 -0.89249,-1.154606 -0.92355,-1.101002 -0.95284,-1.048119 -0.98008,-0.991 -1.00639,-0.934831 -1.03051,-0.87561 -1.053,-0.815926 -1.07496,-0.753649 -1.09351,-0.691634 -1.11152,-0.627022 -1.12626,-0.56149 -1.14088,-0.497144 -1.1533,-0.429739 -1.16232,-0.362595 -1.17147,-0.294268 -1.17804,-0.226437 -1.18149,-0.156503 -1.18462,-0.08893 -1.18546,-0.01948 -1.18385,0.05065 -1.18111,0.118658 -1.17528,0.188758 -1.16831,0.256733 -1.15972,0.325164 -1.14839,0.391923 -1.13637,0.460096 -1.12149,0.52541 -1.10509,0.592368 -1.08732,0.654828 -1.06737,0.720343 -1.04522,0.781591 -1.02209,0.841887 -0.99734,0.902643 -0.97052,0.960314 -0.94192,1.017263 -0.91302,1.071849 -0.88139,1.12476 -0.8488,1.176721 -0.8151,1.226548 -0.77933,1.273289 -0.74342,1.318848 -0.70462,1.361553 -0.66664,1.404025 -0.62646,1.442232 -0.58516,1.478305 -0.54357,1.512013 -0.50021,1.545 -0.45627,1.573259 -0.41287,1.598924 -0.36685,1.624098 -0.32206,1.645264 -0.27533,1.664529 -0.22884,1.678831 -30.4012,249.80781 -0.4211,-2.32385 -0.46818,-2.30534 -0.51528,-2.2868 -0.56132,-2.26308 -0.6072,-2.24054 -0.65271,-2.21424 -0.69754,-2.18651 -0.74087,-2.15714 -0.78465,-2.12424 -0.82745,-2.09228 -0.86905,-2.05631 -0.91081,-2.01915 -0.95038,-1.97895 -0.99063,-1.94015 -1.02901,-1.89597 -1.06725,-1.85291 -1.10398,-1.80826 -1.13951,-1.75958 -1.17506,-1.7109 -1.20828,-1.66035 -1.24068,-1.60956 -1.27352,-1.55525 -1.30295,-1.50118 -1.33347,-1.44498 -1.36073,-1.38786 -1.38895,-1.32978 -1.41389,-1.2708 -1.43831,-1.20921 -1.46191,-1.14738 -1.48483,-1.08418 -1.50434,-1.02118 -1.52399,-0.95706 -1.54296,-0.89149 -1.55882,-0.82382 -1.57438,-0.75852 -1.58777,-0.69016 -1.60117,-0.62181 -1.6121,-0.55276 -1.62209,-0.48467 -1.62976,-0.41469 -1.63675,-0.34332 -1.64264,-0.27408 -1.64622,-0.20295 -1.18149,-0.0868 -1.18152,-0.0172 -1.18057,0.0516 -1.17689,0.11862 -1.17185,0.1885 -1.16476,0.25529 -1.15698,0.32349 -1.14482,0.39048 -1.1335,0.45724 -1.1186,0.52256 -1.10274,0.58691 -1.08429,0.6508 -1.06501,0.71489 -1.04368,0.77591 -1.02056,0.83621 -0.99648,0.89555 -0.96965,0.95322 -0.94173,1.00876 -0.91298,1.06453 -0.8812,1.11625 -0.85024,1.16776 -0.81573,1.21781 -0.7816,1.2641 -0.74568,1.30965 -0.70785,1.35331 -0.66958,1.39342 -0.63035,1.43258 -0.58906,1.46865 -0.54844,1.50331 -0.50574,1.53488 -0.46278,1.56409 -0.41854,1.58999 -0.37514,1.61566 -0.32855,1.6361 -0.28346,1.6549 -0.23742,1.67276 -0.19146,1.68447 -0.14387,1.69663 -0.0975,1.70481 -0.0492,1.71106 -0.003,1.71191 0.0445,1.71299 0.0922,1.7105 0.1385,1.70522 0.18609,1.6966 0.23217,1.68634 0.27802,1.67113 0.32468,1.65615 0.36932,1.63693 0.41329,1.61629 0.45783,1.59094 0.50156,1.56535 0.54326,1.53552 0.58524,1.50333 0.62575,1.46949 0.66475,1.43402 0.70418,1.395 0.74131,1.3541 0.77709,1.31039 0.81301,1.26548 0.8458,1.21848 0.87807,1.16889 0.90951,1.11905 0.93893,1.06499 0.96672,1.01046 0.99287,0.95548 1.01864,0.89672 1.15176,1.01242 1.12586,1.07237 1.09817,1.13304 1.06913,1.19087 1.03875,1.24589 1.00658,1.30163 0.97225,1.35432 0.93821,1.40463 0.90186,1.45308 0.86401,1.49988 0.82631,1.54551 0.78562,1.58784 0.74523,1.62782 0.70252,1.66592 0.66009,1.70165 0.61619,1.73575 0.57188,1.76607 0.52609,1.79474 0.47992,1.81964 0.43292,1.84431 0.38553,1.86521 0.33763,1.8835 0.28918,1.89921 0.2402,1.91233 0.19085,1.92165 0.14081,1.92957 0.0919,1.93536 0.0418,1.93715 -0.008,1.93774 -0.0576,1.93362 -0.10773,1.92807 -0.1574,1.91899 -0.20691,1.90871 -2.0239,16.63053 -0.42824,3.72048 -0.37984,3.73287 -0.33128,3.74411 -0.28341,3.75391 -0.23524,3.76134 -0.18626,3.76901 -0.13781,3.77412 -0.0885,3.77941 -0.0406,3.7819 0.008,3.78343 0.0573,3.78378 0.10564,3.78272 0.15415,3.78048 0.20345,3.77847 0.25075,3.77222 0.3005,3.76666 0.34808,3.75805 0.39633,3.75085 0.4442,3.73987 0.49221,3.72772 0.54022,3.71555 0.58756,3.70198 0.63504,3.68724 0.68199,3.66988 0.72894,3.65254 0.77618,3.63282 0.82178,3.61266 0.86753,3.5913 0.91438,3.56781 0.95878,3.54364 1.00496,3.51873 1.04883,3.49196 1.09351,3.46543 1.13781,3.4351 1.18129,3.40456 1.22396,3.37377 1.26772,3.34087 1.30986,3.30749 1.35131,3.27271 1.39292,3.23674 1.43385,3.19936 1.47396,3.16175 1.51435,3.12177 1.55326,3.08017 1.59284,3.03995 1.63093,2.99812 1.66849,2.95367 1.70523,2.909 1.74211,2.86315 1.04121,1.73313 1.00433,1.77898 0.96432,1.82273 0.92608,1.86576 0.88487,1.9055 0.84394,1.94288 0.80123,1.98099 0.75828,2.01412 0.71519,2.04845 0.67021,2.07736 0.62442,2.10603 0.57974,2.13257 0.53288,2.15606 0.48603,2.17955 0.43894,2.19808 0.39102,2.21637 0.3434,2.23231 0.29443,2.24542 0.24574,2.25617 0.19652,2.26432 0.14731,2.27247 0.0978,2.27567 0.0485,2.27767 -0.001,2.2771 -0.0502,2.27556 -0.10028,2.27002 -0.14941,2.26353 -0.19907,2.25444 -0.24747,2.24204 -5.15715,42.37653 z"
       style="fill:url(#linearGradient3786);fill-opacity:1;stroke:none" />
    <path
       inkscape:connector-curvature="0"
       id="path2993"
       d="m 380.692,637.11523 1.70929,-2.45651 1.67314,-2.50702 1.63617,-2.55777 1.59986,-2.60711 1.56098,-2.65595 1.52342,-2.70197 1.48328,-2.74749 1.44396,-2.7928 1.40366,-2.83714 1.36213,-2.87817 1.3214,-2.91898 1.27742,-2.96069 1.23708,-2.99772 1.19169,-3.03494 1.14958,-3.07125 1.1039,-3.10611 1.06069,-3.14027 1.01376,-3.17182 0.97011,-3.20244 0.92208,-3.23185 0.87815,-3.26011 0.82968,-3.28598 0.783,-3.31256 0.7359,-3.3356 0.68781,-3.35768 0.63893,-3.38001 0.59138,-3.3995 0.54273,-3.41686 0.4949,-3.43399 0.44514,-3.44922 M 227.82257,101.2311 191.19184,402.22716 M 285.79283,117.5473 254.0225,378.60526 M 437.96229,348.7045 413.96322,545.90572 m -29.61267,-249.33157 -13.96871,114.7814 m -42.26109,-147.18567 -15.9194,130.8103 m -166.23406,44.54904 2.02391,-16.63053 m 44.75405,250.98692 -5.15715,42.37653 m 163.44221,2.17408 -5.15715,42.37653 m -60.08033,-643.26545 0.1814,-1.69218 0.13463,-1.70413 0.0865,-1.71158 0.0396,-1.71619 -0.008,-1.71749 -0.0566,-1.71762 -0.10348,-1.71492 -0.15174,-1.70771 -0.1985,-1.69887 -0.24555,-1.68767 -0.29126,-1.673631 -0.33834,-1.655104 -0.38381,-1.636115 -0.42806,-1.613118 -0.47245,-1.588941 -0.51566,-1.560757 -0.55831,-1.529977 -0.59949,-1.497557 -0.64094,-1.462772 -0.68024,-1.424932 -0.71885,-1.38568 -0.75627,-1.342422 -0.79205,-1.298703 -0.82715,-1.253572 -0.86119,-1.203252 -0.89249,-1.154606 -0.92356,-1.101002 -0.95283,-1.048119 -0.98009,-0.991 -1.00638,-0.934832 -1.03051,-0.875609 -1.053,-0.815926 -1.07496,-0.75365 -1.09351,-0.691633 -1.11153,-0.627023 -1.12627,-0.561491 -1.14086,-0.497142 -1.1533,-0.429739 -1.16232,-0.362595 -1.17148,-0.294271 -1.17804,-0.226437 -1.18148,-0.1565 -1.18462,-0.08893 -1.18546,-0.01948 -1.18385,0.05065 -1.18112,0.118656 -1.17527,0.188761 -1.16831,0.256733 -1.15973,0.325164 -1.14838,0.391923 -1.13638,0.460094 -1.12149,0.52541 -1.10509,0.592367 -1.08732,0.654828 -1.06737,0.720344 -1.04522,0.78159 -1.02209,0.841887 -0.99734,0.902645 -0.97052,0.960312 -0.94191,1.017266 -0.91303,1.071846 -0.88139,1.124761 -0.8488,1.176721 -0.8151,1.226548 -0.77933,1.273289 -0.74342,1.318848 -0.70462,1.361552 -0.66664,1.404026 -0.62646,1.442232 -0.58516,1.478304 -0.54357,1.512013 -0.50021,1.545 -0.45627,1.57326 -0.41287,1.598924 -0.36685,1.624097 -0.32206,1.645265 -0.27533,1.664528 -0.22884,1.678831 m -47.36605,511.08922 -1.74211,-2.86315 -1.70523,-2.909 -1.66849,-2.95367 -1.63093,-2.99811 -1.59284,-3.03996 -1.55326,-3.08016 -1.51436,-3.12178 -1.47395,-3.16175 -1.43385,-3.19936 -1.39292,-3.23674 -1.35132,-3.27271 -1.30985,-3.30749 -1.26773,-3.34086 -1.22395,-3.37378 -1.18129,-3.40456 -1.13781,-3.4351 -1.09352,-3.46542 -1.04882,-3.49197 -1.00495,-3.51873 -0.95879,-3.54364 -0.91437,-3.56781 -0.86753,-3.5913 -0.82179,-3.61266 -0.77618,-3.63282 -0.72895,-3.65254 -0.68199,-3.66988 -0.63504,-3.68723 -0.58756,-3.70199 -0.54022,-3.71555 -0.49221,-3.72771 -0.44419,-3.73988 -0.39633,-3.75084 -0.34808,-3.75805 -0.3005,-3.76667 -0.25075,-3.77222 -0.20345,-3.77846 -0.15414,-3.78048 -0.10565,-3.78273 -0.0573,-3.78378 -0.008,-3.78343 0.0406,-3.7819 0.0885,-3.77941 0.1378,-3.7741 0.18627,-3.76902 0.23524,-3.76135 0.2834,-3.75391 0.33129,-3.74409 0.37983,-3.73288 0.42824,-3.72047 m 0.3516,-150.94353 -1.1815,-0.0868 -1.18151,-0.0172 -1.18058,0.0516 -1.17688,0.11863 -1.17186,0.1885 -1.16476,0.25529 -1.15697,0.32349 -1.14483,0.39048 -1.13349,0.45724 -1.11861,0.52255 -1.10274,0.58692 -1.08429,0.65079 -1.06501,0.71489 -1.04369,0.77591 -1.02055,0.83621 -0.99648,0.89555 -0.96966,0.95322 -0.94172,1.00876 -0.91298,1.06453 -0.88121,1.11626 -0.85024,1.16775 -0.81573,1.21782 -0.78159,1.26409 -0.74569,1.30965 -0.70785,1.35331 -0.66958,1.39342 -0.63035,1.43258 -0.58906,1.46865 -0.54844,1.50331 -0.50575,1.53488 -0.46277,1.5641 -0.41854,1.58999 -0.37514,1.61565 -0.32855,1.6361 -0.28347,1.65491 -0.23741,1.67275 -0.19146,1.68447 -0.14387,1.69664 -0.0975,1.7048 -0.0492,1.71107 -0.003,1.7119 0.0445,1.71299 0.0922,1.71051 0.13851,1.70521 0.18609,1.6966 0.23217,1.68634 0.27802,1.67113 0.32468,1.65615 0.36933,1.63693 0.41329,1.6163 0.45783,1.59093 0.50155,1.56535 0.54326,1.53552 0.58525,1.50333 0.62574,1.4695 0.66475,1.43401 0.70418,1.395 0.74132,1.35411 0.77708,1.31038 0.81301,1.26549 0.84581,1.21848 0.87806,1.16888 0.90951,1.11905 0.93894,1.06499 0.96672,1.01047 0.99287,0.95548 1.01864,0.89671 m 197.82282,-104.06031 0.1839,-1.69881 0.13439,-1.70909 0.0872,-1.71748 0.0397,-1.72352 -0.009,-1.72364 -0.0575,-1.72398 -0.1044,-1.72129 -0.15102,-1.71362 -0.19942,-1.70525 -0.24647,-1.69403 -0.29231,-1.67882 -0.33926,-1.66148 -0.38554,-1.64271 -0.4298,-1.61972 -0.47448,-1.59318 -0.51753,-1.56617 -0.56005,-1.53658 -0.60136,-1.50298 -0.64364,-1.46842 -0.68308,-1.4294 -0.72087,-1.38991 -0.75897,-1.34807 -0.79556,-1.30459 -0.82932,-1.25662 -0.86471,-1.20913 -0.89644,-1.15694 -0.92639,-1.10547 -0.95582,-1.05141 -0.98292,-0.99546 -1.01101,-0.93858 -1.03431,-0.87912 -1.05776,-0.81849 -1.07728,-0.75553 -1.09827,-0.69419 -1.11465,-0.62913 -1.13171,-0.56547 -1.14496,-0.49829 -1.15739,-0.43089 -1.16641,-0.36375 -1.17557,-0.29542 -1.18131,-0.22736 -1.18638,-0.15788 -1.18982,-0.0879 -1.18888,-0.0192 -1.18891,0.0504 -1.18372,0.11915 -1.18032,0.18856 -1.17268,0.25794 -1.1641,0.32638 -1.15291,0.39432 -1.13994,0.46154 -1.12519,0.52803 -1.10934,0.5924 -1.09116,0.65863 -1.07093,0.72179 -1.04906,0.7854 -1.02594,0.84569 -1.00104,0.90527 -0.97423,0.96294 -0.94576,1.02107 -0.91605,1.07589 -0.88457,1.12998 -0.85182,1.18075 -0.81799,1.22941 -0.7825,1.27851 -0.74577,1.32429 -0.7078,1.36677 -0.66886,1.4083 -0.62799,1.44791 -0.58751,1.48375 -0.54511,1.5177 -0.50257,1.55045 -0.45862,1.5787 -0.41359,1.60484 -0.36853,1.63096 -0.32278,1.65117 -0.27672,1.66903 -0.22889,1.68615 m 56.22816,32.40381 0.23038,-1.68451 0.27687,-1.67021 0.32277,-1.65117 0.3684,-1.62978 0.41291,-1.60625 0.45862,-1.5787 0.50161,-1.5495 0.54689,-1.51842 0.58588,-1.48421 0.62881,-1.44768 0.66967,-1.40806 0.70779,-1.36678 0.74482,-1.32334 0.7825,-1.27851 0.81813,-1.23058 0.85183,-1.18076 0.88442,-1.1288 0.91605,-1.07589 0.94576,-1.02107 0.97437,-0.96412 1.00022,-0.9055 1.02595,-0.84569 1.04973,-0.78399 1.07175,-0.72155 1.09035,-0.65887 1.10866,-0.59381 1.126,-0.5278 1.13994,-0.46154 1.15373,-0.39409 1.16314,-0.32542 1.17269,-0.25795 1.1795,-0.18879 1.1855,-0.11987 1.18808,-0.0507 1.1897,0.0195 1.18885,0.0889 1.18639,0.15788 1.18227,0.2264 1.17461,0.29638 1.16737,0.36279 1.15807,0.4323 1.14414,0.49807 1.13103,0.56405 1.11547,0.62936 1.09745,0.69396 1.07795,0.75694 1.05777,0.81849 1.03431,0.87912 1.00951,0.93694 0.98375,0.99569 0.95662,1.05164 0.92721,1.1057 0.8963,1.15812 0.86308,1.20867 0.83095,1.25709 0.79489,1.30317 0.75815,1.34784 0.72169,1.39014 0.68375,1.43082 0.64201,1.46796 0.60218,1.5032 0.56019,1.5354 0.51835,1.5664 0.47434,1.59436 0.42979,1.61972 0.38405,1.64107 0.33926,1.66148 0.29395,1.67928 0.24483,1.69358 0.19942,1.70524 0.15169,1.71503 0.10455,1.72011 0.0567,1.72376 0.008,1.72481 -0.0395,1.72234 -0.0872,1.71748 -0.13453,1.71027 -0.18294,1.69787 m -236.35936,126.32453 0.20691,-1.90872 0.15739,-1.91899 0.10774,-1.92808 0.0576,-1.93361 0.008,-1.93775 -0.0418,-1.93714 -0.0919,-1.93537 -0.14081,-1.92957 -0.19085,-1.92165 -0.24021,-1.91232 -0.28918,-1.89921 -0.33762,-1.8835 -0.38554,-1.8652 -0.43291,-1.84431 -0.47992,-1.81965 -0.52609,-1.79474 -0.57189,-1.76607 -0.61618,-1.73575 -0.6601,-1.70165 -0.70252,-1.66592 -0.74522,-1.62781 -0.78562,-1.58785 -0.82631,-1.5455 -0.86402,-1.49989 -0.90185,-1.45308 -0.93821,-1.40463 -0.97225,-1.35431 -1.00659,-1.30163 -1.03875,-1.2459 -1.06913,-1.19087 -1.09817,-1.13303 -1.12585,-1.07237 -1.15176,-1.01243 m 16.02094,-79.6445 1.64622,0.20296 1.64264,0.27407 1.63675,0.34332 1.62976,0.4147 1.62208,0.48467 1.61211,0.55276 1.60117,0.6218 1.58777,0.69017 1.57438,0.75852 1.55881,0.82382 1.54297,0.89148 1.52399,0.95705 1.50434,1.02119 1.48483,1.08417 1.4619,1.14739 1.43831,1.20921 1.4139,1.2708 1.38895,1.32979 1.36073,1.38786 1.33347,1.44498 1.30294,1.50118 1.27353,1.55524 1.24068,1.60957 1.20828,1.66035 1.17505,1.7109 1.13952,1.75957 1.10398,1.80825 1.06724,1.85293 1.02902,1.89595 0.99063,1.94016 0.95038,1.97895 0.9108,2.01916 0.86906,2.0563 0.82745,2.09228 0.78464,2.12423 0.74088,2.15715 0.69754,2.18651 0.65271,2.21423 0.6072,2.24055 0.56132,2.26308 0.51528,2.2868 0.46818,2.30533 0.42109,2.32386 m -4.67611,322.84668 0.24747,-2.24204 0.19907,-2.25445 0.14941,-2.26353 0.10028,-2.27002 0.0502,-2.27556 0.001,-2.27709 -0.0485,-2.27768 -0.0978,-2.27567 -0.1473,-2.27247 -0.19653,-2.26432 -0.24574,-2.25617 -0.29442,-2.24542 -0.3434,-2.23231 -0.39102,-2.21637 -0.43894,-2.19808 -0.48603,-2.17955 -0.53288,-2.15606 -0.57974,-2.13257 -0.62442,-2.10603 -0.67021,-2.07736 -0.71519,-2.04845 -0.75828,-2.01412 -0.80123,-1.98098 -0.84394,-1.94289 -0.88487,-1.9055 -0.92609,-1.86576 -0.96431,-1.82273 -1.00433,-1.77898 -1.04121,-1.73313 m 170.57379,106.1159 0.41086,-3.18137 0.45801,-3.16564 0.5045,-3.15135 0.5504,-3.13231 0.59809,-3.114 0.64222,-3.09424 0.68852,-3.07144 0.73317,-3.04908 0.77836,-3.02414 0.8234,-2.99802 0.86667,-2.97117 0.90979,-2.94314 0.95344,-2.91252 0.99709,-2.88189 1.03964,-2.84914 1.08122,-2.81543 1.12252,-2.77935 1.16396,-2.74447 1.20333,-2.70649 1.24419,-2.66687 1.28342,-2.62772 1.32318,-2.58596 1.35952,-2.54395 1.39736,-2.50029 1.43423,-2.45568 1.47096,-2.4099 1.50755,-2.36292 1.54153,-2.31547 1.57456,-2.26704 m -189.50016,-234.88807 -0.37154,2.85136 -0.41885,2.83683 -0.46585,2.81993 -0.51287,2.80303 -0.55849,2.78163 -0.60589,2.76095 -0.65122,2.73719 -0.69641,2.71225 -0.7416,2.68731 -0.78635,2.65882 -0.83015,2.62937 -0.8738,2.59876 -0.91731,2.56695 -0.95956,2.53182 -1.00197,2.49789 -1.04394,2.46041 m 0,0 -1.05932,2.49641 -1.01788,2.53131 -0.9774,2.56715 -0.93485,2.5999 -0.89313,2.63244 -0.84948,2.66305 -0.8065,2.69227 -0.76241,2.71934 -0.71901,2.74501 -0.67397,2.77113 -0.62848,2.79372 -0.58369,2.81488 -0.53792,2.83509 m 210.68003,-147.63506 0.22899,-1.68001 0.276,-1.66312 0.32206,-1.64526 0.36604,-1.62433 0.41204,-1.59916 0.45791,-1.57279 0.49939,-1.54524 0.54439,-1.51178 0.58531,-1.47948 0.62549,-1.44128 0.66664,-1.40403 0.70462,-1.36155 0.74261,-1.31908 0.78111,-1.27401 0.81331,-1.22583 0.84962,-1.17649 0.88139,-1.12476 0.91221,-1.07208 0.94273,-1.01703 0.97134,-0.96009 0.99652,-0.90287 1.02291,-0.84165 1.04522,-0.7816 1.06737,-0.72034 1.0865,-0.65506 1.10591,-0.59213 1.12067,-0.52564 1.13556,-0.46033 1.14921,-0.39169 1.16054,-0.32494 1.16749,-0.25696 1.17527,-0.18876 1.18112,-0.11866 1.18385,-0.0507 1.18628,0.0197 1.1838,0.0887 1.18148,0.1565 1.17804,0.22644 1.17066,0.29404 1.16314,0.36282 1.1533,0.42974 1.14005,0.49692 1.1279,0.56195 1.11153,0.62702 1.09269,0.6914 1.07496,0.75365 1.053,0.81593 1.03051,0.87561 1.00639,0.93483 0.9809,0.99123 0.95283,1.04812 0.92356,1.101 0.89167,1.15438 0.8612,1.20325 0.82633,1.25334 0.79286,1.29893 0.75627,1.34243 0.71967,1.38591 0.67942,1.4247 0.64095,1.46277 0.6003,1.49779 0.5575,1.52974 0.51566,1.56076 0.47342,1.58799 0.42709,1.61407 0.38381,1.63612 0.33753,1.65487 0.29207,1.67386 0.24651,1.68672 0.19754,1.69982 0.15092,1.70748 0.10512,1.71538 0.0558,1.71739 0.008,1.71749 -0.0396,1.7162 -0.0865,1.71157 -0.13449,1.70295 -0.18154,1.69337"
       style="fill:none;stroke:#000000;stroke-width:4.32305336;stroke-linecap:round;stroke-linejoin:round;stroke-miterlimit:4;stroke-dasharray:none" />
  </g>
</svg>
